<svg id="Livello_1" data-name="Livello 1" xmlns="http://www.w3.org/2000/svg" viewBox="0 0 707 207.61"><defs><style>.cls-1{fill:#ce9d27;}.cls-2{fill:#003865;}</style></defs><title>credipass</title><path class="cls-1" d="M606.59,105.34,639.6.15,706.85,0,707,69.81Zm46.54-86.8L635.21,75.67,688.55,56.8l-.08-38.34Z"/><path class="cls-2" d="M327.1,107.11H307.5v72.5h19.6ZM19.6,143.36C19.6,130.24,28,123,38,123c9.72,0,14.29,6.19,16.06,12.24l17.54-5.9c-3.1-12.23-14.3-24.46-34.05-24.46C16.5,104.9,0,121,0,143.36c0,22.25,16.8,38.46,38.16,38.46,19.31,0,30.66-12.38,33.9-24.46l-17.24-5.75c-1.62,5.6-6.63,12.24-16.66,12.24S19.6,156.48,19.6,143.36m103-17.39a29.61,29.61,0,0,1,5.89.59V106.82a43.66,43.66,0,0,0-4.57-.3c-6.18,0-16.21,1.77-20.63,11.35V107.11h-19v72.5h19.6V146.45c0-15.62,8.7-20.48,18.72-20.48m64.21,9.14H154.39c.44-6.63,6-14.3,16.2-14.3,11.21,0,15.92,7.08,16.21,14.3m19,13.41c0-.3.3-3.24.3-6,0-23.29-13.41-37.58-35.81-37.58-18.57,0-35.66,15-35.66,38.17,0,24.46,17.54,38.75,37.43,38.75,17.83,0,29.32-10.46,33-23L188.72,154c-2.36,6.48-7.37,11.05-16.5,11.05-9.73,0-17.83-6.92-18.28-16.5Zm64.74-5.45c0,13.11-7.81,20.78-17.83,20.78-10.32,0-18-7.67-18-20.64s8-20.33,18-20.33,17.83,7.22,17.83,20.19m.88,36.54h18.72c-.3-3-.59-8.25-.59-13.11V72.92H270.25v41.41c-2.06-3.83-7.95-9-20.48-9C229.29,105.34,215,122,215,143.21c0,22,14.73,38.17,35.36,38.17,9.73,0,17.1-4.42,20.34-10.17a50.69,50.69,0,0,0,.73,8.4m57.89-96.22a12.09,12.09,0,1,0-12.09,11.93,12.09,12.09,0,0,0,12.09-11.93m70.86,60c0,13-8,20.49-18,20.49s-18.12-7.67-18.12-20.49S372.18,123,382.2,123s18,7.52,18,20.34m19.3-.15c0-21.51-12.22-37.72-33.44-37.72-10.91,0-19,4.86-22.26,10.46v-8.84h-19v100.5h19.6V172.54c3.54,4.86,10.91,8.84,20.93,8.84,20.48,0,34.18-16.21,34.18-38.17m54,7.08c0,12.82-7.66,16.79-15.91,16.79-6.34,0-9.43-4.12-9.43-8.39,0-5.6,4-8.4,9-9.14L473.52,147Zm2.06,29.32h18a81.45,81.45,0,0,1-.88-11.49V132.46c0-14.59-8.55-27.56-31.54-27.56-19.45,0-29.91,12.52-31.09,23.87l17.39,3.69c.59-6.34,5.3-11.79,13.85-11.79,8.25,0,12.23,4.27,12.23,9.43,0,2.5-1.32,4.57-5.45,5.16l-17.83,2.65c-12.09,1.77-21.66,9-21.66,22,0,11.35,9.43,21.81,24.9,21.81,10.76,0,17.69-5,21.37-10.75a49.25,49.25,0,0,0,.73,8.69M524.23,127c0-4.12,4.12-7.22,9.28-7.22,8.25,0,11.35,5.46,11.94,9.73l16.35-3.68c-.88-7.82-7.8-20.93-28.44-20.93-15.62,0-27.11,10.76-27.11,23.72,0,10.17,6.33,18.57,20.33,21.67l9.58,2.21c5.6,1.17,7.81,3.83,7.81,7.07,0,3.83-3.09,7.22-9.58,7.22-8.54,0-12.82-5.3-13.26-11l-16.8,3.68c.89,8.25,8.4,22.4,30.21,22.4,19,0,28.15-12.08,28.15-23.87,0-10.61-7.22-19.31-21.52-22.25l-10.31-2.21c-4-.74-6.63-3-6.63-6.49m82.35-21.59a41.34,41.34,0,0,0-6.54-.51c-15.62,0-27.11,10.76-27.11,23.72,0,10.17,6.34,18.57,20.34,21.67l9.57,2.21c5.6,1.17,7.81,3.83,7.81,7.07,0,3.83-3.09,7.22-9.57,7.22-8.55,0-12.83-5.3-13.27-11L571,159.42c.89,8.25,8.4,22.4,30.21,22.4,19,0,28.15-12.08,28.15-23.87,0-10.61-7.22-19.31-21.52-22.25l-10.31-2.21c-4-.74-6.63-3-6.63-6.49,0-4.12,4.12-7.22,9.28-7.22a14.84,14.84,0,0,1,1.83.16Z"/></svg>