<?xml version="1.0" encoding="UTF-8"?>
<svg xmlns="http://www.w3.org/2000/svg" fill="none" viewBox="0 0 214 64" width="24px">
    <g clip-path="url(#a)">
        <path d="m116.55 0c0 0.44079-0.049 0.49589-0.121 0.69149-3.774 10.243-7.554 20.483-11.334 30.723-3.917 10.612-7.8349 21.224-11.752 31.833-0.0441 0.113-0.0193 0.0496-0.113 0.3086-0.2121 0.4407-0.1322 0.4407-0.4766 0.4407-0.0881-0.011-0.1873 0-0.2755 0h-18.367-0.6612c0.3058-0.8292 0.6034-1.6612 0.8789-2.3995 7.565-20.29 15.133-40.58 22.701-60.868 0.0468-0.12397 0.1047-0.24519 0.135-0.37192 0.1074-0.29478 0.2066-0.32233 0.4903-0.32233h0.2645"
              fill="#03508D"></path>
        <path d="m138.52 0.035812c0 0.28651-0.075 0.51793-0.152 0.7273-2.281 6.1959-4.565 12.389-6.851 18.582-5.403 14.637-10.808 29.274-16.21 43.911-0.061 0.157-0.072 0.1845-0.135 0.3719-0.152 0.3664-0.152 0.3664-0.422 0.3664h-0.408c-6.06 0-12.11 0.0027-18.168 0h-0.6666c0-0.1956 0.1046-0.5234 0.1818-0.7246 7.4713-20.064 14.948-40.128 22.428-60.193 0.322-0.86506 0.661-1.7274 0.967-2.5979 0.102-0.29202 0.248-0.44355 0.573-0.44355"
              fill="#CB2027"></path>
        <path d="m142.07 0.03857c-1.017 0-0.821-0.038569-1.105 0.7521-4.367 11.805-8.728 23.613-13.086 35.42-3.322 9.0004-6.642 18.001-9.962 27.004-0.08 0.2149-0.165 0.54-0.165 0.7824h0.432 16.891c0.545 0 0.518 0 0.766-0.6088 0.956-2.5566 1.906-5.1132 2.865-7.667 0.267-0.7135 0.149-0.6336 0.865-0.6336 5.29-0.0028 10.576-0.0028 15.866 0.0027 0.165 0 0.344-0.0578 0.562 0.0937-1.904 2.8789-3.882 5.8653-5.832 8.813h29.731c-0.309-0.8154-0.226-0.595-0.309-0.8154-4.532-12.284-9.069-24.566-13.601-36.85-0.824-2.2287-1.631-4.463-2.446-6.6945-0.097-0.2507-0.234-0.7245-0.367-1.0303l0.507 0.7493c0.102 0.1433 0.21 0.281 0.306 0.427 2.033 3.0552 4.064 6.1132 6.097 9.1685 0.314 0.4711 0.261 0.4711 0.749 0.1625 1.171-0.7383 2.336-1.4849 3.51-2.2205 0.176-0.1102 0.457-0.2782 0.694-0.3939-0.176 0.3719-0.284 0.5262-0.399 0.6997-1.16 1.7687-2.314 3.5401-3.51 5.284-0.427 0.5868-0.427 0.5868-0.143 1.3306 2.25 6.0416 4.479 12.092 6.713 18.139 0.067 0.1763 0.138 0.3498 0.237 0.606 0.182-0.2534 0.309-0.4242 0.427-0.6033 0.943-1.4105 1.887-2.8183 2.819-4.2371 0.17-0.2617 0.355-0.3857 0.686-0.405 0.427-0.0248 0.57 0.2535 0.752 0.5262 3.457 5.1876 6.92 10.37 10.367 15.565 0.231 0.3499 0.462 0.4987 0.898 0.4959 6.369-0.0165 12.736-0.011 19.105-0.0138 0.163 0 0.339 0.0441 0.493-0.055-0.044-0.259-0.206-0.4188-0.325-0.5979-2.901-4.3666-5.804-8.7304-8.705-13.097-4.036-6.0718-8.075-12.141-12.111-18.213-0.336-0.5041-0.336-0.5069 8e-3 -1.022 0.694-1.0469 1.389-2.091 2.086-3.1379 6.025-9.061 12.05-18.122 18.069-27.183 0.127-0.19009 0.303-0.46008 0.303-0.5565h-0.352-7.676c-3.856 0-7.7 0.013775-11.556 0-0.427 0-0.653 0-0.863 0.34712-0.388 0.61711-0.771 1.1791-1.16 1.7659-2.862 4.3445-5.735 8.6753-8.601 13.014-0.214 0.3251-0.429 0.5041-0.843 0.4793-0.371-0.0193-0.465-0.2948-0.614-0.5207-3.218-4.8431-6.438-9.6863-9.634-14.543-0.297-0.45456-0.581-0.53721-1.14-0.5317l-28.299 0.0027549zm1.642 40.164c1.686-5.5815 3.361-11.13 5.033-16.676h0.113c1.647 5.5429 3.292 11.086 4.953 16.676h-10.099z"
              fill="#03508D"></path>
        <path d="m75.64 0.035812c-0.27 0-0.3995 0.090913-0.4849 0.33059-0.2286 0.6419-0.4711 1.281-0.7108 1.9202-3.4602 9.2786-6.9176 18.56-10.381 27.836-0.0744 0.2011-0.0964 0.4436-0.3471 0.6392v-0.8679-29.023c0-0.17632 0.0028-0.35263 0.0028-0.52895 0-0.26447-0.0799-0.3058-0.3417-0.3058h-0.3361c-4.3197 0-8.6229 0.052344-12.956 0-0.7025 0-0.6998 0.10193-0.9285 0.48762-2.2342 3.7192-4.4877 7.4273-6.7358 11.135-0.135 0.2232-0.3306 0.5234-0.4738 0.7466-0.0331-0.0992-0.0579-0.1378-0.0744-0.1736-0.0771-0.157-0.0964-0.1956-0.1405-0.2975-2.2425-5.1628-6.0774-8.6285-11.359-10.469-4.7027-1.6364-10.177-1.7439-14.408-0.91464-6.2041 1.1653-10.573 4.6806-13.047 10.502-1.3169 3.0938-1.8596 6.3667-2.1241 9.6974-0.041324 0.5262-0.066118 1.0551-0.10744 1.5841-0.01653 0.2259 0.063363 0.3306 0.29478 0.3223 0.15428-0.0055 0.30856 0 0.46282 0h10.579c0.1323 0 0.2314 0.0028 0.3967 0.0028 0.405 0 0.4133 0 0.4133-0.427 0.022-0.6392 0.0688-1.2756 0.1322-1.912 0.1543-1.5813 0.3747-3.1489 0.9174-4.6531 0.8513-2.3582 2.4657-3.9285 4.8845-4.6255 1.6309-0.4683 3.3004-0.5427 4.9754-0.2755 2.5456 0.4105 4.4024 1.7935 5.6201 4.058 0.7218 1.3444 1.0744 2.788 1.1736 4.2977 0.2177 3.3528-0.8568 6.2813-2.923 8.8847-0.9918 1.2508-2.1736 2.3087-3.3941 3.3252-2.9643 2.4712-6.0966 4.7192-9.218 6.9838-2.9671 2.1516-5.7854 4.4768-8.2318 7.2262-1.4546 1.6364-2.7081 3.4079-3.6641 5.3914-1.5372 3.182-2.5428 6.5127-2.9257 10.028-0.085404 0.7879-0.13224 1.5813-0.17356 2.372-0.027549 0.5207-0.0082648 0.5234 0.54548 0.5317h0.066119 24.596c0.573 0 0.595 0.0606 0.595-0.562-0.0027-3.2839 0-6.5678 0-9.8517 0-0.6061 0.0331-0.5647-0.5813-0.5647-2.9092 0-5.8184 0-8.7276-0.0028h-0.6281c-0.011-0.2589 0.1515-0.4546 0.2672-0.6309 0.7604-1.146 1.6805-2.1516 2.7384-3.0276 1.5979-1.3197 3.2674-2.5456 4.9617-3.7385 0.46-0.3251 0.719-0.6364 0.7906-1.2645 0.0772-0.5593 0.1488-0.956 0.2314-1.4326 0.2673-1.562 0.5317-3.1241 0.799-4.6861 0.0606-0.3389 0.0606-0.3389 0.1377-0.7604 0 0.6116 0.0028 0.9615 0.0028 1.7108 0.0082 3.4161 0.0137 6.8323 0.022 10.246 0.0028 0.9312-0.0716 0.8155 0.81 0.8155 7.9783 0.0028 15.957 0 23.935 0.0028 0.8457 0 0.7438-0.0854 0.7438 0.7328 0.0028 4.1875 0 8.375 0.0028 12.562 0 0.5785 0.0055 0.5785 0.5702 0.584 0.1323 0.0028 0.2645 0 0.3968 0 5.2426-0.0027 10.469 0 15.703 0h2.2894c1.0386-0.0165 0.7631 0.0799 1.1212-0.887 4.4107-11.932 8.8131-23.866 13.218-35.798 3.2619-8.8351 6.5237-17.673 9.7801-26.511 0.0854-0.23417 0.1542-0.38845 0.168-0.76587h-18.921zm-24.737 40.197c-4.2316-0.0082-8.4632-0.0082-12.695-0.011-0.0385 0-0.0744-0.0303-0.1129-0.0441 0.1102-0.4518 12.505-21.588 13.199-22.464v0.7934 20.96c0 0.1322-0.011 0.2644 0.0027 0.3967 0.0276 0.2947-0.1184 0.3691-0.3939 0.3691z"
              clip-rule="evenodd" fill="#03508D" fill-rule="evenodd"></path>
    </g>
    <defs>
        <clipPath id="a">
            <rect width="213.49" height="64" fill="#fff"></rect>
        </clipPath>
    </defs>
</svg>
